<mxfile host="fa622102-4414-4bd1-9dfa-069fffc08073" modified="2020-09-02T02:38:09.768Z" agent="5.0 (Macintosh; Intel Mac OS X 10_15_6) AppleWebKit/537.36 (KHTML, like Gecko) Code/1.48.2 Chrome/78.0.3904.130 Electron/7.3.2 Safari/537.36" etag="rvaJ2T3kClmvA6JyAX_7" version="13.1.3" pages="3">
    <diagram id="6hGFLwfOUW9BJ-s0fimq" name="ThreadLocal">
        <mxGraphModel dx="952" dy="685" grid="1" gridSize="10" guides="1" tooltips="1" connect="1" arrows="1" fold="1" page="1" pageScale="1" pageWidth="827" pageHeight="1169" math="0" shadow="0">
            <root>
                <mxCell id="0"/>
                <mxCell id="1" parent="0"/>
                <mxCell id="18" value="" style="group" parent="1" vertex="1" connectable="0">
                    <mxGeometry x="20" y="10" width="652" height="490" as="geometry"/>
                </mxCell>
                <mxCell id="6" value="&lt;h1 style=&quot;margin: 0px ; margin-top: 4px ; text-align: center&quot;&gt;&lt;b&gt;ThreadLocal&lt;/b&gt;&lt;/h1&gt;&lt;hr size=&quot;1&quot;&gt;&lt;p style=&quot;margin: 0px ; margin-left: 4px&quot;&gt;+ field: Type&lt;/p&gt;&lt;hr size=&quot;1&quot;&gt;&lt;p style=&quot;margin: 0px ; margin-left: 4px&quot;&gt;+ method(): Type&lt;/p&gt;" style="verticalAlign=top;align=left;overflow=fill;fontSize=12;fontFamily=Helvetica;html=1;" parent="18" vertex="1">
                    <mxGeometry x="26" y="230" width="160" height="90" as="geometry"/>
                </mxCell>
                <mxCell id="9" value="&lt;h1 style=&quot;margin: 0px ; margin-top: 4px ; text-align: center&quot;&gt;&lt;b&gt;ThreadLocalMap&lt;/b&gt;&lt;/h1&gt;&lt;hr size=&quot;1&quot;&gt;&lt;pre style=&quot;background-color: #2b2b2b ; color: #a9b7c6 ; font-family: &amp;#34;jetbrains mono&amp;#34; ; font-size: 9.8pt&quot;&gt;&lt;span style=&quot;color: #cc7832&quot;&gt;   private &lt;/span&gt;Entry[] &lt;span style=&quot;color: #9876aa&quot;&gt;table&lt;/span&gt;&lt;span style=&quot;color: #cc7832&quot;&gt;;&lt;/span&gt;&lt;/pre&gt;&lt;hr size=&quot;1&quot;&gt;&lt;pre style=&quot;background-color: #2b2b2b ; color: #a9b7c6 ; font-family: &amp;#34;jetbrains mono&amp;#34; ; font-size: 9.8pt&quot;&gt;&lt;span style=&quot;color: #cc7832&quot;&gt;   private void &lt;/span&gt;&lt;span style=&quot;color: #ffc66d&quot;&gt;set&lt;/span&gt;(ThreadLocal&amp;lt;?&amp;gt; key&lt;span style=&quot;color: #cc7832&quot;&gt;, &lt;/span&gt;Object value)&lt;/pre&gt;&lt;pre style=&quot;background-color: #2b2b2b ; color: #a9b7c6 ; font-family: &amp;#34;jetbrains mono&amp;#34; ; font-size: 9.8pt&quot;&gt;&lt;span style=&quot;font-size: 9.8pt ; white-space: nowrap ; color: rgb(204 , 120 , 50)&quot;&gt;&amp;nbsp; &amp;nbsp; private &lt;/span&gt;&lt;span style=&quot;font-size: 9.8pt ; white-space: nowrap&quot;&gt;Entry &lt;/span&gt;&lt;span style=&quot;font-size: 9.8pt ; white-space: nowrap ; color: rgb(255 , 198 , 109)&quot;&gt;getEntry&lt;/span&gt;&lt;span style=&quot;font-size: 9.8pt ; white-space: nowrap&quot;&gt;(ThreadLocal&amp;lt;?&amp;gt; key)&lt;/span&gt;&lt;br&gt;&lt;/pre&gt;" style="verticalAlign=top;align=left;overflow=fill;fontSize=12;fontFamily=Helvetica;html=1;" parent="18" vertex="1">
                    <mxGeometry x="296" y="200" width="356" height="164" as="geometry"/>
                </mxCell>
                <mxCell id="10" value="&lt;h1 style=&quot;margin: 0px ; margin-top: 4px ; text-align: center&quot;&gt;&lt;b&gt;Entity&lt;/b&gt;&lt;/h1&gt;&lt;hr size=&quot;1&quot;&gt;&lt;p style=&quot;margin: 0px ; margin-left: 4px&quot;&gt;+ field: Type&lt;/p&gt;&lt;hr size=&quot;1&quot;&gt;&lt;p style=&quot;margin: 0px ; margin-left: 4px&quot;&gt;+ method(): Type&lt;/p&gt;" style="verticalAlign=top;align=left;overflow=fill;fontSize=12;fontFamily=Helvetica;html=1;" parent="18" vertex="1">
                    <mxGeometry x="26" y="400" width="160" height="90" as="geometry"/>
                </mxCell>
                <mxCell id="11" value="&lt;h1 style=&quot;margin: 0px ; margin-top: 4px ; text-align: center&quot;&gt;&lt;b&gt;Thread&lt;/b&gt;&lt;/h1&gt;&lt;hr size=&quot;1&quot;&gt;&lt;p style=&quot;margin: 0px ; margin-left: 4px&quot;&gt;&lt;/p&gt;&lt;p style=&quot;margin: 0px ; margin-left: 4px&quot;&gt;&lt;br&gt;&lt;span style=&quot;font-family: &amp;#34;jetbrains mono&amp;#34; ; font-size: 9.8pt ; color: rgb(204 , 120 , 50)&quot;&gt;&amp;nbsp; &amp;nbsp; public static native &lt;/span&gt;&lt;span style=&quot;background-color: rgb(43 , 43 , 43) ; color: rgb(169 , 183 , 198) ; font-family: &amp;#34;jetbrains mono&amp;#34; ; font-size: 9.8pt&quot;&gt;Thread &lt;/span&gt;&lt;span style=&quot;font-family: &amp;#34;jetbrains mono&amp;#34; ; font-size: 9.8pt ; color: rgb(255 , 198 , 109)&quot;&gt;currentThread&lt;/span&gt;&lt;span style=&quot;background-color: rgb(43 , 43 , 43) ; color: rgb(169 , 183 , 198) ; font-family: &amp;#34;jetbrains mono&amp;#34; ; font-size: 9.8pt&quot;&gt;()&lt;/span&gt;&lt;/p&gt;&lt;p style=&quot;margin: 0px ; margin-left: 4px&quot;&gt;&lt;br&gt;&lt;/p&gt;&lt;p style=&quot;margin: 0px ; margin-left: 4px&quot;&gt;&lt;br&gt;&lt;/p&gt;&lt;p style=&quot;margin: 0px ; margin-left: 4px&quot;&gt;&amp;nbsp; &amp;nbsp;&amp;nbsp;&lt;span style=&quot;background-color: rgb(43 , 43 , 43) ; color: rgb(169 , 183 , 198) ; font-family: &amp;#34;jetbrains mono&amp;#34; ; font-size: 9.8pt&quot;&gt;ThreadLocal.ThreadLocalMap &lt;/span&gt;&lt;span style=&quot;font-family: &amp;#34;jetbrains mono&amp;#34; ; font-size: 9.8pt ; color: rgb(152 , 118 , 170)&quot;&gt;threadLocals&lt;/span&gt;&lt;/p&gt;" style="verticalAlign=top;align=left;overflow=fill;fontSize=12;fontFamily=Helvetica;html=1;" parent="18" vertex="1">
                    <mxGeometry width="400" height="150" as="geometry"/>
                </mxCell>
                <mxCell id="12" value="" style="endArrow=open;startArrow=circlePlus;endFill=0;startFill=0;endSize=8;html=1;exitX=1.035;exitY=0.622;exitDx=0;exitDy=0;exitPerimeter=0;entryX=0;entryY=0.5;entryDx=0;entryDy=0;" parent="18" source="6" target="9" edge="1">
                    <mxGeometry width="160" relative="1" as="geometry">
                        <mxPoint x="386" y="280" as="sourcePoint"/>
                        <mxPoint x="546" y="280" as="targetPoint"/>
                    </mxGeometry>
                </mxCell>
                <mxCell id="14" value="Extends" style="endArrow=block;endSize=16;endFill=0;html=1;entryX=0.5;entryY=1;entryDx=0;entryDy=0;exitX=0.5;exitY=0;exitDx=0;exitDy=0;" parent="18" source="10" target="6" edge="1">
                    <mxGeometry width="160" relative="1" as="geometry">
                        <mxPoint x="86" y="390" as="sourcePoint"/>
                        <mxPoint x="246" y="390" as="targetPoint"/>
                    </mxGeometry>
                </mxCell>
                <mxCell id="15" value="" style="endArrow=open;startArrow=circlePlus;endFill=0;startFill=0;endSize=8;html=1;entryX=1.023;entryY=0.578;entryDx=0;entryDy=0;entryPerimeter=0;" parent="18" target="10" edge="1">
                    <mxGeometry width="160" relative="1" as="geometry">
                        <mxPoint x="466" y="370" as="sourcePoint"/>
                        <mxPoint x="546" y="280" as="targetPoint"/>
                        <Array as="points">
                            <mxPoint x="466" y="452"/>
                        </Array>
                    </mxGeometry>
                </mxCell>
                <mxCell id="16" value="" style="endArrow=open;endFill=1;endSize=12;html=1;exitX=0.675;exitY=0.733;exitDx=0;exitDy=0;exitPerimeter=0;entryX=0.5;entryY=0;entryDx=0;entryDy=0;" parent="18" source="11" target="6" edge="1">
                    <mxGeometry width="160" relative="1" as="geometry">
                        <mxPoint x="386" y="280" as="sourcePoint"/>
                        <mxPoint x="546" y="280" as="targetPoint"/>
                    </mxGeometry>
                </mxCell>
                <mxCell id="17" value="" style="endArrow=open;endFill=1;endSize=12;html=1;entryX=1;entryY=0;entryDx=0;entryDy=0;exitX=0.337;exitY=0.366;exitDx=0;exitDy=0;exitPerimeter=0;" parent="18" source="9" target="10" edge="1">
                    <mxGeometry width="160" relative="1" as="geometry">
                        <mxPoint x="423" y="200" as="sourcePoint"/>
                        <mxPoint x="116" y="240" as="targetPoint"/>
                    </mxGeometry>
                </mxCell>
                <mxCell id="32" value="" style="group" parent="1" vertex="1" connectable="0">
                    <mxGeometry x="10" y="540" width="440" height="310" as="geometry"/>
                </mxCell>
                <mxCell id="19" value="" style="rounded=0;whiteSpace=wrap;html=1;fillColor=#1ba1e2;strokeColor=#006EAF;fontColor=#ffffff;" parent="32" vertex="1">
                    <mxGeometry width="440" height="310" as="geometry"/>
                </mxCell>
                <mxCell id="20" value="Thread-1" style="text;html=1;align=center;verticalAlign=middle;resizable=0;points=[];autosize=1;" parent="32" vertex="1">
                    <mxGeometry x="20" y="20" width="60" height="20" as="geometry"/>
                </mxCell>
                <mxCell id="21" value="" style="rounded=0;whiteSpace=wrap;html=1;fillColor=#008a00;strokeColor=#005700;fontColor=#ffffff;" parent="32" vertex="1">
                    <mxGeometry x="30" y="60" width="370" height="220" as="geometry"/>
                </mxCell>
                <mxCell id="22" value="ThreadLocal" style="text;html=1;align=center;verticalAlign=middle;resizable=0;points=[];autosize=1;" parent="32" vertex="1">
                    <mxGeometry x="30" y="70" width="80" height="20" as="geometry"/>
                </mxCell>
                <mxCell id="23" value="ThreadLocalMap" style="text;html=1;align=center;verticalAlign=middle;resizable=0;points=[];autosize=1;" parent="32" vertex="1">
                    <mxGeometry x="175" y="70" width="110" height="20" as="geometry"/>
                </mxCell>
                <mxCell id="24" value="" style="edgeStyle=orthogonalEdgeStyle;rounded=0;orthogonalLoop=1;jettySize=auto;html=1;" parent="32" source="22" target="23" edge="1">
                    <mxGeometry relative="1" as="geometry"/>
                </mxCell>
                <mxCell id="27" value="" style="rounded=0;whiteSpace=wrap;html=1;fillColor=#0050ef;strokeColor=#001DBC;fontColor=#ffffff;" parent="32" vertex="1">
                    <mxGeometry x="40" y="100" width="330" height="170" as="geometry"/>
                </mxCell>
                <mxCell id="29" value="Entry[]" style="text;html=1;align=center;verticalAlign=middle;resizable=0;points=[];autosize=1;" parent="32" vertex="1">
                    <mxGeometry x="80" y="120" width="50" height="20" as="geometry"/>
                </mxCell>
                <mxCell id="30" value="Entrty&amp;lt;ThreadLocal1,Object&amp;gt;" style="rounded=1;whiteSpace=wrap;html=1;fillColor=#a20025;strokeColor=#6F0000;fontColor=#ffffff;" parent="32" vertex="1">
                    <mxGeometry x="50" y="150" width="220" height="50" as="geometry"/>
                </mxCell>
                <mxCell id="31" value="&lt;span&gt;Entrty&amp;lt;ThreadLocal2,Object&amp;gt;&lt;/span&gt;" style="rounded=1;whiteSpace=wrap;html=1;fillColor=#a20025;strokeColor=#6F0000;fontColor=#ffffff;" parent="32" vertex="1">
                    <mxGeometry x="50" y="210" width="220" height="50" as="geometry"/>
                </mxCell>
            </root>
        </mxGraphModel>
    </diagram>
    <diagram id="C3bg06jzLSXeeiRQfkHA" name="CAS vs Sync">
        <mxGraphModel dx="952" dy="685" grid="1" gridSize="10" guides="1" tooltips="1" connect="1" arrows="1" fold="1" page="1" pageScale="1" pageWidth="827" pageHeight="1169" math="0" shadow="0">
            <root>
                <mxCell id="J-xeYt7vEhWOmL54CXmc-0"/>
                <mxCell id="J-xeYt7vEhWOmL54CXmc-1" parent="J-xeYt7vEhWOmL54CXmc-0"/>
                <mxCell id="J-xeYt7vEhWOmL54CXmc-37" value="" style="group" parent="J-xeYt7vEhWOmL54CXmc-1" vertex="1" connectable="0">
                    <mxGeometry x="5" y="48" width="288" height="342" as="geometry"/>
                </mxCell>
                <mxCell id="J-xeYt7vEhWOmL54CXmc-35" value="Sync 悲观锁" style="text;html=1;align=center;verticalAlign=middle;resizable=0;points=[];autosize=1;" parent="J-xeYt7vEhWOmL54CXmc-37" vertex="1">
                    <mxGeometry y="322" width="80" height="20" as="geometry"/>
                </mxCell>
                <mxCell id="J-xeYt7vEhWOmL54CXmc-36" value="" style="group" parent="J-xeYt7vEhWOmL54CXmc-37" vertex="1" connectable="0">
                    <mxGeometry x="45" width="243" height="297" as="geometry"/>
                </mxCell>
                <mxCell id="J-xeYt7vEhWOmL54CXmc-25" value="" style="rounded=0;whiteSpace=wrap;html=1;fillColor=#eeeeee;strokeColor=#36393d;" parent="J-xeYt7vEhWOmL54CXmc-36" vertex="1">
                    <mxGeometry x="10" y="122" width="180" height="60" as="geometry"/>
                </mxCell>
                <mxCell id="J-xeYt7vEhWOmL54CXmc-26" value="&lt;b&gt;&lt;font style=&quot;font-size: 15px&quot; color=&quot;#000000&quot;&gt;count = count++&lt;/font&gt;&lt;/b&gt;" style="text;html=1;align=center;verticalAlign=middle;resizable=0;points=[];autosize=1;" parent="J-xeYt7vEhWOmL54CXmc-36" vertex="1">
                    <mxGeometry x="35" y="142" width="130" height="20" as="geometry"/>
                </mxCell>
                <mxCell id="J-xeYt7vEhWOmL54CXmc-27" value="" style="shape=flexArrow;endArrow=classic;html=1;" parent="J-xeYt7vEhWOmL54CXmc-36" edge="1">
                    <mxGeometry width="50" height="50" relative="1" as="geometry">
                        <mxPoint x="160" y="16" as="sourcePoint"/>
                        <mxPoint x="160" y="76" as="targetPoint"/>
                        <Array as="points">
                            <mxPoint x="160.5" y="16"/>
                        </Array>
                    </mxGeometry>
                </mxCell>
                <mxCell id="J-xeYt7vEhWOmL54CXmc-28" value="" style="shape=flexArrow;endArrow=classic;html=1;fillColor=#e51400;strokeColor=#B20000;" parent="J-xeYt7vEhWOmL54CXmc-36" edge="1">
                    <mxGeometry width="50" height="50" relative="1" as="geometry">
                        <mxPoint x="190" y="18" as="sourcePoint"/>
                        <mxPoint x="190" y="78" as="targetPoint"/>
                    </mxGeometry>
                </mxCell>
                <mxCell id="J-xeYt7vEhWOmL54CXmc-29" value="" style="shape=flexArrow;endArrow=classic;html=1;fillColor=#e51400;strokeColor=#B20000;" parent="J-xeYt7vEhWOmL54CXmc-36" edge="1">
                    <mxGeometry width="50" height="50" relative="1" as="geometry">
                        <mxPoint x="213" y="20" as="sourcePoint"/>
                        <mxPoint x="213" y="80" as="targetPoint"/>
                    </mxGeometry>
                </mxCell>
                <mxCell id="J-xeYt7vEhWOmL54CXmc-30" value="" style="shape=flexArrow;endArrow=classic;html=1;fillColor=#e51400;strokeColor=#B20000;" parent="J-xeYt7vEhWOmL54CXmc-36" edge="1">
                    <mxGeometry width="50" height="50" relative="1" as="geometry">
                        <mxPoint x="243" y="22" as="sourcePoint"/>
                        <mxPoint x="243" y="82" as="targetPoint"/>
                    </mxGeometry>
                </mxCell>
                <mxCell id="J-xeYt7vEhWOmL54CXmc-31" value="count = 0&lt;br&gt;count = count++" style="text;html=1;align=center;verticalAlign=middle;resizable=0;points=[];autosize=1;" parent="J-xeYt7vEhWOmL54CXmc-36" vertex="1">
                    <mxGeometry x="17" width="100" height="30" as="geometry"/>
                </mxCell>
                <mxCell id="J-xeYt7vEhWOmL54CXmc-32" value="" style="shape=flexArrow;endArrow=classic;html=1;" parent="J-xeYt7vEhWOmL54CXmc-36" edge="1">
                    <mxGeometry width="50" height="50" relative="1" as="geometry">
                        <mxPoint x="35" y="235" as="sourcePoint"/>
                        <mxPoint x="35" y="295" as="targetPoint"/>
                        <Array as="points">
                            <mxPoint x="35.5" y="235"/>
                        </Array>
                    </mxGeometry>
                </mxCell>
                <mxCell id="J-xeYt7vEhWOmL54CXmc-33" value="" style="shape=flexArrow;endArrow=classic;html=1;fillColor=#e51400;strokeColor=#B20000;" parent="J-xeYt7vEhWOmL54CXmc-36" edge="1">
                    <mxGeometry width="50" height="50" relative="1" as="geometry">
                        <mxPoint x="65" y="237" as="sourcePoint"/>
                        <mxPoint x="65" y="297" as="targetPoint"/>
                    </mxGeometry>
                </mxCell>
                <mxCell id="J-xeYt7vEhWOmL54CXmc-34" value="锁" style="ellipse;whiteSpace=wrap;html=1;aspect=fixed;fillColor=#a20025;strokeColor=#6F0000;fontColor=#ffffff;" parent="J-xeYt7vEhWOmL54CXmc-36" vertex="1">
                    <mxGeometry y="92" width="50" height="50" as="geometry"/>
                </mxCell>
                <mxCell id="J-xeYt7vEhWOmL54CXmc-38" value="" style="group" parent="J-xeYt7vEhWOmL54CXmc-1" vertex="1" connectable="0">
                    <mxGeometry x="430" y="30" width="380" height="536" as="geometry"/>
                </mxCell>
                <mxCell id="J-xeYt7vEhWOmL54CXmc-2" value="cou" style="rounded=0;whiteSpace=wrap;html=1;fillColor=#f9f7ed;strokeColor=#36393d;" parent="J-xeYt7vEhWOmL54CXmc-38" vertex="1">
                    <mxGeometry y="90" width="210" height="60" as="geometry"/>
                </mxCell>
                <mxCell id="J-xeYt7vEhWOmL54CXmc-3" value="" style="rounded=0;whiteSpace=wrap;html=1;fillColor=#f9f7ed;strokeColor=#36393d;" parent="J-xeYt7vEhWOmL54CXmc-38" vertex="1">
                    <mxGeometry y="180" width="210" height="60" as="geometry"/>
                </mxCell>
                <mxCell id="J-xeYt7vEhWOmL54CXmc-16" style="edgeStyle=orthogonalEdgeStyle;rounded=0;orthogonalLoop=1;jettySize=auto;html=1;entryX=0.75;entryY=0;entryDx=0;entryDy=0;" parent="J-xeYt7vEhWOmL54CXmc-38" source="J-xeYt7vEhWOmL54CXmc-4" target="J-xeYt7vEhWOmL54CXmc-2" edge="1">
                    <mxGeometry relative="1" as="geometry">
                        <mxPoint x="210" y="30" as="targetPoint"/>
                        <Array as="points">
                            <mxPoint x="380" y="365"/>
                            <mxPoint x="380" y="10"/>
                            <mxPoint x="158" y="10"/>
                        </Array>
                    </mxGeometry>
                </mxCell>
                <mxCell id="J-xeYt7vEhWOmL54CXmc-4" value="" style="rounded=0;whiteSpace=wrap;html=1;fillColor=#ffcc99;strokeColor=#36393d;" parent="J-xeYt7vEhWOmL54CXmc-38" vertex="1">
                    <mxGeometry x="10" y="290" width="200" height="150" as="geometry"/>
                </mxCell>
                <mxCell id="J-xeYt7vEhWOmL54CXmc-5" value="" style="rounded=0;whiteSpace=wrap;html=1;fillColor=#f9f7ed;strokeColor=#36393d;" parent="J-xeYt7vEhWOmL54CXmc-38" vertex="1">
                    <mxGeometry x="40" y="300" width="160" height="60" as="geometry"/>
                </mxCell>
                <mxCell id="J-xeYt7vEhWOmL54CXmc-6" value="" style="rounded=0;whiteSpace=wrap;html=1;fillColor=#f9f7ed;strokeColor=#36393d;" parent="J-xeYt7vEhWOmL54CXmc-38" vertex="1">
                    <mxGeometry x="52.5" y="370" width="135" height="60" as="geometry"/>
                </mxCell>
                <mxCell id="J-xeYt7vEhWOmL54CXmc-7" value="&lt;b&gt;&lt;font style=&quot;font-size: 15px&quot; color=&quot;#000000&quot;&gt;count = 1&lt;/font&gt;&lt;/b&gt;" style="text;html=1;align=center;verticalAlign=middle;resizable=0;points=[];autosize=1;" parent="J-xeYt7vEhWOmL54CXmc-38" vertex="1">
                    <mxGeometry x="20" y="100" width="80" height="20" as="geometry"/>
                </mxCell>
                <mxCell id="J-xeYt7vEhWOmL54CXmc-8" value="&lt;b&gt;&lt;font style=&quot;font-size: 15px&quot; color=&quot;#000000&quot;&gt;count ++1---&amp;gt;2&lt;/font&gt;&lt;/b&gt;" style="text;html=1;align=center;verticalAlign=middle;resizable=0;points=[];autosize=1;" parent="J-xeYt7vEhWOmL54CXmc-38" vertex="1">
                    <mxGeometry x="20" y="200" width="120" height="20" as="geometry"/>
                </mxCell>
                <mxCell id="J-xeYt7vEhWOmL54CXmc-13" style="edgeStyle=orthogonalEdgeStyle;rounded=0;orthogonalLoop=1;jettySize=auto;html=1;entryX=0.5;entryY=0;entryDx=0;entryDy=0;" parent="J-xeYt7vEhWOmL54CXmc-38" source="J-xeYt7vEhWOmL54CXmc-3" target="J-xeYt7vEhWOmL54CXmc-4" edge="1">
                    <mxGeometry relative="1" as="geometry"/>
                </mxCell>
                <mxCell id="J-xeYt7vEhWOmL54CXmc-9" value="" style="endArrow=classic;html=1;exitX=0.5;exitY=1;exitDx=0;exitDy=0;" parent="J-xeYt7vEhWOmL54CXmc-38" source="J-xeYt7vEhWOmL54CXmc-2" target="J-xeYt7vEhWOmL54CXmc-3" edge="1">
                    <mxGeometry width="50" height="50" relative="1" as="geometry">
                        <mxPoint x="-40" y="250" as="sourcePoint"/>
                        <mxPoint x="10" y="290" as="targetPoint"/>
                    </mxGeometry>
                </mxCell>
                <mxCell id="J-xeYt7vEhWOmL54CXmc-14" value="&lt;b&gt;&lt;font style=&quot;font-size: 15px&quot; color=&quot;#000000&quot;&gt;Compare&lt;br&gt;count ? 1&lt;br&gt;&lt;/font&gt;&lt;/b&gt;" style="text;html=1;align=center;verticalAlign=middle;resizable=0;points=[];autosize=1;" parent="J-xeYt7vEhWOmL54CXmc-38" vertex="1">
                    <mxGeometry x="70" y="315" width="80" height="30" as="geometry"/>
                </mxCell>
                <mxCell id="J-xeYt7vEhWOmL54CXmc-15" value="&lt;b&gt;&lt;font style=&quot;font-size: 15px&quot; color=&quot;#000000&quot;&gt;Swap 1---&amp;gt; 2&lt;br&gt;&lt;/font&gt;&lt;/b&gt;" style="text;html=1;align=center;verticalAlign=middle;resizable=0;points=[];autosize=1;" parent="J-xeYt7vEhWOmL54CXmc-38" vertex="1">
                    <mxGeometry x="60" y="390" width="100" height="20" as="geometry"/>
                </mxCell>
                <mxCell id="J-xeYt7vEhWOmL54CXmc-17" value="CAS&lt;br&gt;" style="text;html=1;align=center;verticalAlign=middle;resizable=0;points=[];autosize=1;" parent="J-xeYt7vEhWOmL54CXmc-38" vertex="1">
                    <mxGeometry x="273" y="191" width="40" height="20" as="geometry"/>
                </mxCell>
                <mxCell id="J-xeYt7vEhWOmL54CXmc-18" value="" style="shape=flexArrow;endArrow=classic;html=1;" parent="J-xeYt7vEhWOmL54CXmc-38" edge="1">
                    <mxGeometry width="50" height="50" relative="1" as="geometry">
                        <mxPoint x="40" as="sourcePoint"/>
                        <mxPoint x="40" y="60" as="targetPoint"/>
                    </mxGeometry>
                </mxCell>
                <mxCell id="J-xeYt7vEhWOmL54CXmc-19" value="" style="shape=flexArrow;endArrow=classic;html=1;" parent="J-xeYt7vEhWOmL54CXmc-38" edge="1">
                    <mxGeometry width="50" height="50" relative="1" as="geometry">
                        <mxPoint x="70" y="2" as="sourcePoint"/>
                        <mxPoint x="70" y="62" as="targetPoint"/>
                    </mxGeometry>
                </mxCell>
                <mxCell id="J-xeYt7vEhWOmL54CXmc-20" value="" style="shape=flexArrow;endArrow=classic;html=1;" parent="J-xeYt7vEhWOmL54CXmc-38" edge="1">
                    <mxGeometry width="50" height="50" relative="1" as="geometry">
                        <mxPoint x="21.5" y="470" as="sourcePoint"/>
                        <mxPoint x="21.5" y="530" as="targetPoint"/>
                    </mxGeometry>
                </mxCell>
                <mxCell id="J-xeYt7vEhWOmL54CXmc-21" value="" style="shape=flexArrow;endArrow=classic;html=1;" parent="J-xeYt7vEhWOmL54CXmc-38" edge="1">
                    <mxGeometry width="50" height="50" relative="1" as="geometry">
                        <mxPoint x="51.5" y="472" as="sourcePoint"/>
                        <mxPoint x="51.5" y="532" as="targetPoint"/>
                    </mxGeometry>
                </mxCell>
                <mxCell id="J-xeYt7vEhWOmL54CXmc-22" value="" style="shape=flexArrow;endArrow=classic;html=1;" parent="J-xeYt7vEhWOmL54CXmc-38" edge="1">
                    <mxGeometry width="50" height="50" relative="1" as="geometry">
                        <mxPoint x="74.5" y="474" as="sourcePoint"/>
                        <mxPoint x="74.5" y="534" as="targetPoint"/>
                    </mxGeometry>
                </mxCell>
                <mxCell id="J-xeYt7vEhWOmL54CXmc-23" value="" style="shape=flexArrow;endArrow=classic;html=1;" parent="J-xeYt7vEhWOmL54CXmc-38" edge="1">
                    <mxGeometry width="50" height="50" relative="1" as="geometry">
                        <mxPoint x="104.5" y="476" as="sourcePoint"/>
                        <mxPoint x="104.5" y="536" as="targetPoint"/>
                    </mxGeometry>
                </mxCell>
                <mxCell id="J-xeYt7vEhWOmL54CXmc-24" value="Text" style="text;html=1;align=center;verticalAlign=middle;resizable=0;points=[];autosize=1;" parent="J-xeYt7vEhWOmL54CXmc-38" vertex="1">
                    <mxGeometry x="195" y="506" width="40" height="20" as="geometry"/>
                </mxCell>
            </root>
        </mxGraphModel>
    </diagram>
    <diagram id="_Qss3_vUQX4qvZxgMgW1" name="FutureTask">
        <mxGraphModel dx="952" dy="685" grid="1" gridSize="10" guides="1" tooltips="1" connect="1" arrows="1" fold="1" page="1" pageScale="1" pageWidth="827" pageHeight="1169" background="none" math="0" shadow="0">
            <root>
                <mxCell id="ssK1hMnGsCodJUUgialT-0"/>
                <mxCell id="ssK1hMnGsCodJUUgialT-1" parent="ssK1hMnGsCodJUUgialT-0"/>
                <mxCell id="ssK1hMnGsCodJUUgialT-2" value="«interface»&lt;br&gt;&lt;pre style=&quot;background-color: #2b2b2b ; color: #a9b7c6 ; font-family: &amp;#34;jetbrains mono&amp;#34; ; font-size: 9.8pt&quot;&gt;RunnableFuture&lt;/pre&gt;" style="html=1;" parent="ssK1hMnGsCodJUUgialT-1" vertex="1">
                    <mxGeometry x="340" y="160" width="110" height="70" as="geometry"/>
                </mxCell>
                <mxCell id="ssK1hMnGsCodJUUgialT-3" value="«interface»&lt;br&gt;&lt;pre style=&quot;background-color: #2b2b2b ; color: #a9b7c6 ; font-family: &amp;#34;jetbrains mono&amp;#34; ; font-size: 9.8pt&quot;&gt;Runnable&lt;/pre&gt;" style="html=1;" parent="ssK1hMnGsCodJUUgialT-1" vertex="1">
                    <mxGeometry x="430" y="30" width="110" height="70" as="geometry"/>
                </mxCell>
                <mxCell id="ssK1hMnGsCodJUUgialT-4" value="«interface»&lt;br&gt;&lt;pre style=&quot;background-color: #2b2b2b ; color: #a9b7c6 ; font-family: &amp;#34;jetbrains mono&amp;#34; ; font-size: 9.8pt&quot;&gt;&lt;pre style=&quot;font-family: &amp;#34;jetbrains mono&amp;#34; ; font-size: 9.8pt&quot;&gt;Future&lt;/pre&gt;&lt;/pre&gt;" style="html=1;" parent="ssK1hMnGsCodJUUgialT-1" vertex="1">
                    <mxGeometry x="250" y="30" width="110" height="70" as="geometry"/>
                </mxCell>
                <mxCell id="OXL2tJBqi7OweN5Bub2e-0" value="Extends" style="endArrow=block;endSize=16;endFill=0;html=1;entryX=0.5;entryY=1;entryDx=0;entryDy=0;exitX=0;exitY=0.5;exitDx=0;exitDy=0;" parent="ssK1hMnGsCodJUUgialT-1" source="ssK1hMnGsCodJUUgialT-2" target="ssK1hMnGsCodJUUgialT-4" edge="1">
                    <mxGeometry width="160" relative="1" as="geometry">
                        <mxPoint x="360" y="150" as="sourcePoint"/>
                        <mxPoint x="570" y="350" as="targetPoint"/>
                        <Array as="points">
                            <mxPoint x="300" y="195"/>
                        </Array>
                    </mxGeometry>
                </mxCell>
                <mxCell id="OXL2tJBqi7OweN5Bub2e-1" value="Extends" style="endArrow=block;endSize=16;endFill=0;html=1;entryX=0.5;entryY=1;entryDx=0;entryDy=0;exitX=1;exitY=0.5;exitDx=0;exitDy=0;" edge="1" parent="ssK1hMnGsCodJUUgialT-1" source="ssK1hMnGsCodJUUgialT-2" target="ssK1hMnGsCodJUUgialT-3">
                    <mxGeometry width="160" relative="1" as="geometry">
                        <mxPoint x="250" y="350" as="sourcePoint"/>
                        <mxPoint x="410" y="350" as="targetPoint"/>
                        <Array as="points">
                            <mxPoint x="480" y="195"/>
                        </Array>
                    </mxGeometry>
                </mxCell>
                <mxCell id="OXL2tJBqi7OweN5Bub2e-2" value="&lt;p style=&quot;margin: 0px ; margin-top: 4px ; text-align: center&quot;&gt;&lt;b&gt;FutureTask&lt;/b&gt;&lt;/p&gt;&lt;hr size=&quot;1&quot;&gt;&lt;div style=&quot;height: 2px&quot;&gt;&lt;/div&gt;" style="verticalAlign=top;align=left;overflow=fill;fontSize=12;fontFamily=Helvetica;html=1;" vertex="1" parent="ssK1hMnGsCodJUUgialT-1">
                    <mxGeometry x="325" y="320" width="140" height="60" as="geometry"/>
                </mxCell>
                <mxCell id="OXL2tJBqi7OweN5Bub2e-3" value="" style="endArrow=block;dashed=1;endFill=0;endSize=12;html=1;entryX=0.5;entryY=1;entryDx=0;entryDy=0;exitX=0.5;exitY=0;exitDx=0;exitDy=0;" edge="1" parent="ssK1hMnGsCodJUUgialT-1" source="OXL2tJBqi7OweN5Bub2e-2" target="ssK1hMnGsCodJUUgialT-2">
                    <mxGeometry width="160" relative="1" as="geometry">
                        <mxPoint x="405" y="310" as="sourcePoint"/>
                        <mxPoint x="565" y="310" as="targetPoint"/>
                    </mxGeometry>
                </mxCell>
            </root>
        </mxGraphModel>
    </diagram>
</mxfile>